<?xml version="1.0" encoding="UTF-8"?>
<mxfile host="app.diagrams.net" modified="2025-10-02T00:00:00.000Z" agent="5.0 (Windows)" version="24.7.8">
  <diagram id="hN3MVc9i-Xp6kzMfGIfJ" name="Casos de Uso">
    <mxGraphModel dx="1200" dy="800" grid="1" gridSize="10" guides="1" tooltips="1" connect="1" arrows="1" fold="1" page="1" pageScale="1" pageWidth="1654" pageHeight="1169" math="0" shadow="0">
      <root>
        <mxCell id="0"/>
        <mxCell id="1" parent="0"/>
        <mxCell id="actor_admin" value="Administrador" style="shape=umlActor;verticalLabelPosition=bottom;verticalAlign=top;html=1;fontSize=12;" vertex="1" parent="1">
          <mxGeometry x="80" y="160" width="40" height="80" as="geometry"/>
        </mxCell>
        <mxCell id="actor_coord" value="Coordinador" style="shape=umlActor;verticalLabelPosition=bottom;verticalAlign=top;html=1;fontSize=12;" vertex="1" parent="1">
          <mxGeometry x="80" y="360" width="40" height="80" as="geometry"/>
        </mxCell>
        <mxCell id="actor_caddie" value="Caddie" style="shape=umlActor;verticalLabelPosition=bottom;verticalAlign=top;html=1;fontSize=12;" vertex="1" parent="1">
          <mxGeometry x="80" y="520" width="40" height="80" as="geometry"/>
        </mxCell>
        <mxCell id="iface_auth" value="Iniciar sesiÃ³n" style="ellipse;whiteSpace=wrap;html=1;fillColor=#dae8fc;strokeColor=#6c8ebf;fontSize=12;" vertex="1" parent="1">
          <mxGeometry x="260" y="180" width="160" height="80" as="geometry"/>
        </mxCell>
        <mxCell id="iface_manage_users" value="Gestionar usuarios" style="ellipse;whiteSpace=wrap;html=1;fillColor=#ffe6cc;strokeColor=#d79b00;fontSize=12;" vertex="1" parent="1">
          <mxGeometry x="260" y="300" width="160" height="80" as="geometry"/>
        </mxCell>
        <mxCell id="iface_turnos" value="Gestionar turnos" style="ellipse;whiteSpace=wrap;html=1;fillColor=#d5e8d4;strokeColor=#82b366;fontSize=12;" vertex="1" parent="1">
          <mxGeometry x="260" y="420" width="160" height="80" as="geometry"/>
        </mxCell>
        <mxCell id="iface_eventos" value="Gestionar eventos" style="ellipse;whiteSpace=wrap;html=1;fillColor=#f8cecc;strokeColor=#b85450;fontSize=12;" vertex="1" parent="1">
          <mxGeometry x="260" y="540" width="160" height="80" as="geometry"/>
        </mxCell>
        <mxCell id="iface_notif" value="Recibir notificaciones" style="ellipse;whiteSpace=wrap;html=1;fillColor=#e1d5e7;strokeColor=#9673a6;fontSize=12;" vertex="1" parent="1">
          <mxGeometry x="520" y="420" width="180" height="80" as="geometry"/>
        </mxCell>
        <mxCell id="iface_solicitar" value="Solicitar cambio" style="ellipse;whiteSpace=wrap;html=1;fillColor=#fff2cc;strokeColor=#d6b656;fontSize=12;" vertex="1" parent="1">
          <mxGeometry x="520" y="540" width="180" height="80" as="geometry"/>
        </mxCell>
        <mxCell id="iface_reporte" value="Consultar reportes" style="ellipse;whiteSpace=wrap;html=1;fillColor=#c9daf8;strokeColor=#6d9eeb;fontSize=12;" vertex="1" parent="1">
          <mxGeometry x="520" y="300" width="180" height="80" as="geometry"/>
        </mxCell>
        <mxCell id="edge_admin_login" style="endArrow=none;html=1;" edge="1" parent="1" source="actor_admin" target="iface_auth">
          <mxGeometry relative="1" as="geometry"/>
        </mxCell>
        <mxCell id="edge_admin_manage" style="endArrow=none;html=1;" edge="1" parent="1" source="actor_admin" target="iface_manage_users">
          <mxGeometry relative="1" as="geometry"/>
        </mxCell>
        <mxCell id="edge_coord_login" style="endArrow=none;html=1;" edge="1" parent="1" source="actor_coord" target="iface_auth">
          <mxGeometry relative="1" as="geometry"/>
        </mxCell>
        <mxCell id="edge_coord_turnos" style="endArrow=none;html=1;" edge="1" parent="1" source="actor_coord" target="iface_turnos">
          <mxGeometry relative="1" as="geometry"/>
        </mxCell>
        <mxCell id="edge_coord_eventos" style="endArrow=none;html=1;" edge="1" parent="1" source="actor_coord" target="iface_eventos">
          <mxGeometry relative="1" as="geometry"/>
        </mxCell>
        <mxCell id="edge_coord_notif" style="endArrow=none;html=1;" edge="1" parent="1" source="actor_coord" target="iface_notif">
          <mxGeometry relative="1" as="geometry"/>
        </mxCell>
        <mxCell id="edge_coord_reporte" style="endArrow=none;html=1;" edge="1" parent="1" source="actor_coord" target="iface_reporte">
          <mxGeometry relative="1" as="geometry"/>
        </mxCell>
        <mxCell id="edge_caddie_login" style="endArrow=none;html=1;" edge="1" parent="1" source="actor_caddie" target="iface_auth">
          <mxGeometry relative="1" as="geometry"/>
        </mxCell>
        <mxCell id="edge_caddie_solicitar" style="endArrow=none;html=1;" edge="1" parent="1" source="actor_caddie" target="iface_solicitar">
          <mxGeometry relative="1" as="geometry"/>
        </mxCell>
        <mxCell id="edge_caddie_notif" style="endArrow=none;html=1;" edge="1" parent="1" source="actor_caddie" target="iface_notif">
          <mxGeometry relative="1" as="geometry"/>
        </mxCell>
      </root>
    </mxGraphModel>
  </diagram>
</mxfile>
